<svg width="23" height="23" viewBox="0 0 23 23" fill="none" xmlns="http://www.w3.org/2000/svg">
<path d="M20.897 9.62309H20.125V9.58332H11.5V13.4167H16.916C16.1259 15.6481 14.0027 17.25 11.5 17.25C8.32458 17.25 5.75002 14.6754 5.75002 11.5C5.75002 8.32455 8.32458 5.74999 11.5 5.74999C12.9658 5.74999 14.2993 6.30295 15.3147 7.20618L18.0253 4.49553C16.3137 2.90039 14.0243 1.91666 11.5 1.91666C6.20762 1.91666 1.91669 6.20759 1.91669 11.5C1.91669 16.7924 6.20762 21.0833 11.5 21.0833C16.7924 21.0833 21.0834 16.7924 21.0834 11.5C21.0834 10.8574 21.0172 10.2302 20.897 9.62309Z" fill="#FFC107"/>
<path d="M3.02167 7.03943L6.17027 9.34853C7.02223 7.23924 9.08552 5.74999 11.5 5.74999C12.9658 5.74999 14.2993 6.30295 15.3147 7.20618L18.0253 4.49553C16.3138 2.90039 14.0243 1.91666 11.5 1.91666C7.81908 1.91666 4.62688 3.9948 3.02167 7.03943Z" fill="#FF3D00"/>
<path d="M11.5 21.0833C13.9754 21.0833 16.2246 20.136 17.9252 18.5955L14.9591 16.0856C13.9646 16.8419 12.7494 17.251 11.5 17.25C9.00738 17.25 6.8909 15.6606 6.09357 13.4425L2.96844 15.8503C4.55449 18.9539 7.77544 21.0833 11.5 21.0833Z" fill="#4CAF50"/>
<path d="M20.8969 9.62311H20.125V9.58334H11.5V13.4167H16.916C16.5381 14.4787 15.8572 15.4067 14.9577 16.0861L14.9591 16.0852L17.9251 18.595C17.7153 18.7857 21.0833 16.2917 21.0833 11.5C21.0833 10.8574 21.0172 10.2302 20.8969 9.62311Z" fill="#1976D2"/>
</svg>
